<svg class="svg">
  <clipPath id="my-clip-path" clipPathUnits="objectBoundingBox"><path d="M1,0.463 V0 H0 C0,0,0.059,0.078,0.037,0.186 C0.015,0.293,0.082,0.515,0.154,0.545 C0.227,0.575,0.185,0.68,0.252,0.8 C0.319,0.919,0.347,0.83,0.383,0.856 C0.398,0.866,0.405,0.926,0.452,0.914 C0.486,0.905,0.521,0.881,0.533,0.889 C0.545,0.897,0.553,1,0.553,1 C0.553,1,0.625,0.969,0.64,0.938 C0.655,0.907,0.74,0.811,0.738,0.672 C0.738,0.625,0.757,0.576,0.846,0.616 C0.935,0.656,1,0.599,1,0.463"></path></clipPath>
</svg>